# xmcd
#
# Track frame offsets:
#	150
#	12005
#	27437
#	42732
#	59192
#	73807
#	88335
#	106060
#	124100
#	137815
#	150247
#	164095
#	179185
#	193085
#
# Disc length: 2776
#
# Revision: 1
# Processed by: cddbd v1.5.1PL0 Copyright (c) Steve Scherf et al.
# Submitted via: VisiTrax 2.9.5.180 - For more info visit www.synapsa.com
# Normalized: r0:DSETVAR1
#
DISCID=d40ad60e
DTITLE=Various Artist - Mr Music Country 12-02
DYEAR=2002
DGENRE=Country
TTITLE0=Danni Leigh - Longnecks, Cigarettes
TTITLE1=Mark Chesnutt - Good Night To Be Lonely
TTITLE2=Louie Crapitto - A Night In Laredo
TTITLE3=Dawn Sears - Don't Take Your Hands Off My Heart
TTITLE4=Montgomery Gentry - Ramblin' Man
TTITLE5=Deryl Dodd - That's How I Got To Memphis
TTITLE6=Christine Albert - Great Days In The Mornin'
TTITLE7=Doug Stone - Sailing Home For Christmas
TTITLE8=Keith Harling - Santa's Got a Semi
TTITLE9=Riders In The Sky - Silver Bells
TTITLE10=Britni Hendrickson - Rollin' Home For Christmas
TTITLE11=Charlie Daniels - Carolina I Hear You Calling
TTITLE12=Joni Harms - Remember What It's All About
TTITLE13=Stacey Kostes - There's No Cryin' In Love
EXTD=
EXTT0=
EXTT1=
EXTT2=
EXTT3=
EXTT4=
EXTT5=
EXTT6=
EXTT7=
EXTT8=
EXTT9=
EXTT10=
EXTT11=
EXTT12=
EXTT13=
PLAYORDER=
